<svg xmlns="http://www.w3.org/2000/svg" xmlns:xlink="http://www.w3.org/1999/xlink" width="96" height="96" viewBox="0 0 96 96"><defs><style>.a{fill:#5b39c9;}.b{fill:#fff;}.c{filter:url(#a);}</style><filter id="a" x="0" y="0" width="96" height="96" filterUnits="userSpaceOnUse"><feOffset dy="3" input="SourceAlpha"/><feGaussianBlur stdDeviation="8" result="b"/><feFlood flood-color="#777" flood-opacity="0.161"/><feComposite operator="in" in2="b"/><feComposite in="SourceGraphic"/></filter></defs><g transform="translate(-227 -1676)"><g class="c" transform="matrix(1, 0, 0, 1, 227, 1676)"><rect class="a" width="48" height="48" rx="8" transform="translate(24 21)"/></g><g transform="translate(260 1696.5)"><path class="b" d="M26.777,9.5H3.223A3.238,3.238,0,0,0,0,12.745V31.215A3.238,3.238,0,0,0,3.223,34.46h8.086v2.36H8.027a.885.885,0,0,0,0,1.77H21.855a.885.885,0,0,0,0-1.77H18.574V34.46h8.2A3.238,3.238,0,0,0,30,31.215V12.745A3.238,3.238,0,0,0,26.777,9.5ZM3.223,11.27H26.777a1.472,1.472,0,0,1,1.465,1.475V28.265H1.758V12.745A1.472,1.472,0,0,1,3.223,11.27Zm13.594,25.55h-3.75V34.46h3.75Zm9.961-4.131H3.223a1.472,1.472,0,0,1-1.465-1.475v-1.18H28.242v1.18A1.472,1.472,0,0,1,26.777,32.69Z" transform="translate(0 0)"/><path class="b" d="M170.886,83.438h8.329a.886.886,0,0,0,.886-.886V76.409a.886.886,0,0,0-.886-.886h-5.907V73.485a1.713,1.713,0,1,1,3.426,0,.886.886,0,1,0,1.772,0,3.485,3.485,0,0,0-6.97,0v2.038h-.65a.886.886,0,0,0-.886.886v6.143A.886.886,0,0,0,170.886,83.438Zm7.443-1.772h-6.557V77.3h6.557Z" transform="translate(-160.08 -56.926)"/></g></g></svg>