<svg xmlns="http://www.w3.org/2000/svg" xmlns:xlink="http://www.w3.org/1999/xlink" width="96" height="96" viewBox="0 0 96 96"><defs><style>.a{fill:#f77ade;}.b{fill:#fff;}.c{filter:url(#a);}</style><filter id="a" x="0" y="0" width="96" height="96" filterUnits="userSpaceOnUse"><feOffset dy="3" input="SourceAlpha"/><feGaussianBlur stdDeviation="8" result="b"/><feFlood flood-color="#777" flood-opacity="0.161"/><feComposite operator="in" in2="b"/><feComposite in="SourceGraphic"/></filter></defs><g transform="translate(-227 -1676)"><g class="c" transform="matrix(1, 0, 0, 1, 227, 1676)"><rect class="a" width="48" height="48" rx="8" transform="translate(24 21)"/></g><g transform="translate(259.5 1706)"><path class="b" d="M13.621,23.91a.63.63,0,0,1-.444-.183l-8.06-8.06a.628.628,0,0,1-.025-.862l6.041-6.767C15.356,3.1,22.232-.1,28.228,0a.626.626,0,0,1,.612.612c.139,6-3.094,12.872-8.046,17.1l-6.756,6.032A.621.621,0,0,1,13.621,23.91ZM6.423,15.2l7.222,7.222,6.324-5.646A22.1,22.1,0,0,0,27.588,1.256,22.084,22.084,0,0,0,12.078,8.864Z" transform="translate(1.156 0)"/><path class="b" d="M14.078,25.154a.582.582,0,0,1-.179-.028.62.62,0,0,1-.444-.484l-.86-6a.627.627,0,1,1,1.242-.178l.672,4.69A14.641,14.641,0,0,0,17.927,13.8a.627.627,0,1,1,1.254,0,15.881,15.881,0,0,1-4.618,11.155A.7.7,0,0,1,14.078,25.154Z" transform="translate(3.133 3.248)"/><path class="b" d="M7.884,12.748a.541.541,0,0,1-.089-.006l-6-.86a.627.627,0,0,1-.351-1.067,15.917,15.917,0,0,1,11.2-4.659.627.627,0,1,1,0,1.254,14.638,14.638,0,0,0-9.361,3.417l4.7.673a.627.627,0,0,1-.089,1.248Z" transform="translate(0.319 1.532)"/><path class="b" d="M17.768,10.636a3.134,3.134,0,1,1,2.217-.917A3.126,3.126,0,0,1,17.768,10.636Zm0-5.014a1.88,1.88,0,1,0,1.331.549,1.877,1.877,0,0,0-1.331-.549Zm1.773,3.654h.013Z" transform="translate(3.643 1.087)"/><path class="b" d="M.627,26.032a.626.626,0,0,1-.6-.806c.206-.686,2.048-6.748,3.39-8.09A3.876,3.876,0,0,1,8.9,22.617c-1.342,1.342-7.4,3.184-8.09,3.39a.689.689,0,0,1-.181.025Zm5.531-8.777a2.618,2.618,0,0,0-1.855.766c-.724.725-1.928,3.962-2.723,6.431,2.468-.8,5.706-2,6.43-2.723a2.62,2.62,0,0,0-1.852-4.475Z" transform="translate(0 3.968)"/></g></g></svg>