<svg xmlns="http://www.w3.org/2000/svg" xmlns:xlink="http://www.w3.org/1999/xlink" width="96" height="96" viewBox="0 0 96 96"><defs><style>.a{fill:#f77ade;}.b{fill:#fff;}.c{filter:url(#a);}</style><filter id="a" x="0" y="0" width="96" height="96" filterUnits="userSpaceOnUse"><feOffset dy="3" input="SourceAlpha"/><feGaussianBlur stdDeviation="8" result="b"/><feFlood flood-color="#777" flood-opacity="0.161"/><feComposite operator="in" in2="b"/><feComposite in="SourceGraphic"/></filter></defs><g transform="translate(-227 -1676)"><g class="c" transform="matrix(1, 0, 0, 1, 227, 1676)"><rect class="a" width="48" height="48" rx="8" transform="translate(24 21)"/></g><g transform="translate(257.999 1688.975)"><g transform="translate(0.002 25.627)"><path class="b" d="M32.962,160H1.086a1.063,1.063,0,0,0,0,2.125H32.962a1.063,1.063,0,0,0,0-2.125Z" transform="translate(-0.024 -159.998)"/></g><g transform="translate(7.439 16.04)"><g transform="translate(0 0)"><path class="b" d="M130.878,26.142l-8.5-9.563a1.1,1.1,0,0,0-1.59,0l-8.5,9.563a1.063,1.063,0,0,0,1.59,1.411l7.705-8.67,7.705,8.67a1.063,1.063,0,0,0,1.59-1.411Z" transform="translate(-112.02 -16.238)"/></g></g><g transform="translate(0 16.026)"><g transform="translate(0 0)"><path class="b" d="M33.736,25.989,26.3,17.455a1.055,1.055,0,0,0-.665-.356l-8.5-1.067a1.27,1.27,0,0,0-.238,0L6.271,17.1a1.059,1.059,0,0,0-.795.495L.163,26.126a1.066,1.066,0,0,0,.066,1.227L16.167,47.62a1.061,1.061,0,0,0,1.668,0L33.772,27.352A1.07,1.07,0,0,0,33.736,25.989ZM17,45.237,2.361,26.618,7,19.164l9.988-1,7.979,1,6.59,7.561Z" transform="translate(0 -16.026)"/></g></g><g transform="translate(7.439 25.714)"><g transform="translate(0 0)"><path class="b" d="M122.558,180.853l-8.5-20.188a1.063,1.063,0,1,0-1.959.825l8.5,20.188a1.064,1.064,0,0,0,.98.65,1.09,1.09,0,0,0,.412-.083A1.064,1.064,0,0,0,122.558,180.853Z" transform="translate(-112.015 -160.016)"/></g></g><g transform="translate(15.939 25.712)"><path class="b" d="M249.99,160.064a1.061,1.061,0,0,0-1.392.567l-8.5,20.188a1.062,1.062,0,0,0,.567,1.392,1.081,1.081,0,0,0,.412.083,1.064,1.064,0,0,0,.98-.65l8.5-20.188A1.064,1.064,0,0,0,249.99,160.064Z" transform="translate(-240.015 -159.98)"/></g><g transform="translate(5.316 17.085)"><g transform="translate(0 0)"><path class="b" d="M84.259,41.292l-2.125-8.5a1.061,1.061,0,1,0-2.059.514l2.125,8.5a1.061,1.061,0,1,0,2.059-.514Z" transform="translate(-80.042 -31.986)"/></g></g><g transform="translate(24.439 17.086)"><g transform="translate(0 0)"><path class="b" d="M369.086,32a1.063,1.063,0,0,0-1.062,1.063v8.5a1.063,1.063,0,0,0,2.125,0v-8.5A1.063,1.063,0,0,0,369.086,32Z" transform="translate(-368.024 -31.998)"/></g></g></g></g></svg>