<svg xmlns="http://www.w3.org/2000/svg" xmlns:xlink="http://www.w3.org/1999/xlink" width="96" height="96" viewBox="0 0 96 96"><defs><style>.a{fill:#f77ade;}.b{fill:#fff;}.c{filter:url(#a);}</style><filter id="a" x="0" y="0" width="96" height="96" filterUnits="userSpaceOnUse"><feOffset dy="3" input="SourceAlpha"/><feGaussianBlur stdDeviation="8" result="b"/><feFlood flood-color="#777" flood-opacity="0.161"/><feComposite operator="in" in2="b"/><feComposite in="SourceGraphic"/></filter></defs><g transform="translate(-227 -1676)"><g class="c" transform="matrix(1, 0, 0, 1, 227, 1676)"><rect class="a" width="48" height="48" rx="8" transform="translate(24 21)"/></g><g transform="translate(260 1706)"><path class="b" d="M13.214,0A13.214,13.214,0,1,0,26.427,13.214,13.229,13.229,0,0,0,13.214,0Zm0,23.988A10.774,10.774,0,1,1,23.988,13.214,10.787,10.787,0,0,1,13.214,23.988Z"/><g transform="translate(20.581 20.581)"><path class="b" d="M360.108,358.385l-6.983-6.983a1.218,1.218,0,0,0-1.722,1.722l6.983,6.983a1.218,1.218,0,0,0,1.722-1.722Z" transform="translate(-351.046 -351.046)"/></g></g></g></svg>