<svg xmlns="http://www.w3.org/2000/svg" xmlns:xlink="http://www.w3.org/1999/xlink" width="96" height="96" viewBox="0 0 96 96"><defs><style>.a{fill:#5b39c9;}.b{fill:#fff;}.c{filter:url(#a);}</style><filter id="a" x="0" y="0" width="96" height="96" filterUnits="userSpaceOnUse"><feOffset dy="3" input="SourceAlpha"/><feGaussianBlur stdDeviation="8" result="b"/><feFlood flood-color="#777" flood-opacity="0.161"/><feComposite operator="in" in2="b"/><feComposite in="SourceGraphic"/></filter></defs><g transform="translate(-227 -1676)"><g class="c" transform="matrix(1, 0, 0, 1, 227, 1676)"><rect class="a" width="48" height="48" rx="8" transform="translate(24 21)"/></g><g transform="translate(259.5 1706)"><g transform="translate(0 0)"><g transform="translate(0 0)"><path class="b" d="M93.685,222.644a.679.679,0,0,0,.961,0l6.992-6.992v3.795a.679.679,0,1,0,1.359,0v-5.435a.679.679,0,0,0-.679-.679H96.882a.679.679,0,1,0,0,1.359h3.795L94.165,221.2l-7.672-7.672a.679.679,0,1,0-.961.961Z" transform="translate(-79.85 -199.673)"/><path class="b" d="M27.273,0H2.727A2.73,2.73,0,0,0,0,2.727V27.273A2.73,2.73,0,0,0,2.727,30H27.273A2.73,2.73,0,0,0,30,27.273V2.727A2.73,2.73,0,0,0,27.273,0Zm1.364,27.273a1.365,1.365,0,0,1-1.364,1.364H2.727a1.365,1.365,0,0,1-1.364-1.364V6.818H28.636Zm0-21.818H1.364V2.727A1.365,1.365,0,0,1,2.727,1.364H27.273a1.365,1.365,0,0,1,1.364,1.364V5.455Z" transform="translate(0 0)"/><circle class="b" cx="0.679" cy="0.679" r="0.679" transform="translate(2.717 2.717)"/><circle class="b" cx="0.679" cy="0.679" r="0.679" transform="translate(5.455 2.717)"/><circle class="b" cx="0.679" cy="0.679" r="0.679" transform="translate(8.183 2.717)"/></g></g></g></g></svg>