<svg xmlns="http://www.w3.org/2000/svg" xmlns:xlink="http://www.w3.org/1999/xlink" width="96" height="96" viewBox="0 0 96 96"><defs><style>.a{fill:#5b39c9;}.b{fill:#fff;}.c{filter:url(#a);}</style><filter id="a" x="0" y="0" width="96" height="96" filterUnits="userSpaceOnUse"><feOffset dy="3" input="SourceAlpha"/><feGaussianBlur stdDeviation="8" result="b"/><feFlood flood-color="#777" flood-opacity="0.161"/><feComposite operator="in" in2="b"/><feComposite in="SourceGraphic"/></filter></defs><g transform="translate(-227 -1676)"><g class="c" transform="matrix(1, 0, 0, 1, 227, 1676)"><rect class="a" width="48" height="48" rx="8" transform="translate(24 21)"/></g><g transform="translate(246.399 1705)"><g transform="translate(13.601 9.286)"><path class="b" d="M43.276,168.125H41.905v-19.8a1.678,1.678,0,0,0-1.68-1.671H37.161a1.678,1.678,0,0,0-1.68,1.671v19.8H32V157.3a1.678,1.678,0,0,0-1.68-1.671H27.256a1.678,1.678,0,0,0-1.68,1.671v10.829H22.1v-5.608a1.678,1.678,0,0,0-1.68-1.671H17.351a1.678,1.678,0,0,0-1.68,1.671v5.608H14.226a.622.622,0,1,0,0,1.243h29.05a.622.622,0,1,0,0-1.243Zm-22.431,0H16.921v-5.608a.429.429,0,0,1,.43-.428h3.064a.429.429,0,0,1,.43.428v5.608Zm9.905,0H26.826V157.3a.429.429,0,0,1,.43-.428H30.32a.43.43,0,0,1,.43.428Zm9.905,0H36.731v-19.8a.429.429,0,0,1,.43-.428h3.064a.429.429,0,0,1,.43.428Z" transform="translate(-13.601 -146.654)"/></g><g transform="translate(18.633)"><path class="b" d="M122.59.666A.631.631,0,0,0,121.926,0L121.9,0h-3.831a.633.633,0,1,0,0,1.266h2.365l-6.26,6.26L111.81,5.165a.633.633,0,0,0-.9,0L99.532,16.548a.633.633,0,0,0,.9.9L111.362,6.509l2.361,2.361a.633.633,0,0,0,.9,0l6.707-6.707V4.3a.633.633,0,0,0,1.266,0V.7C122.592.686,122.591.676,122.59.666Z" transform="translate(-99.346)"/></g><g transform="translate(16.896 18.322)"><circle class="b" cx="0.633" cy="0.633" r="0.633"/></g></g></g></svg>