<svg xmlns="http://www.w3.org/2000/svg" xmlns:xlink="http://www.w3.org/1999/xlink" width="96" height="96" viewBox="0 0 96 96"><defs><style>.a{fill:#5b39c9;}.b{fill:#fff;}.c{filter:url(#a);}</style><filter id="a" x="0" y="0" width="96" height="96" filterUnits="userSpaceOnUse"><feOffset dy="3" input="SourceAlpha"/><feGaussianBlur stdDeviation="8" result="b"/><feFlood flood-color="#777" flood-opacity="0.161"/><feComposite operator="in" in2="b"/><feComposite in="SourceGraphic"/></filter></defs><g transform="translate(-227 -1676)"><g class="c" transform="matrix(1, 0, 0, 1, 227, 1676)"><rect class="a" width="48" height="48" rx="8" transform="translate(24 21)"/></g><g transform="translate(255.25 1701.25)"><path class="b" d="M34.307,4.75H5.193a.443.443,0,0,0-.443.443V29.816a.443.443,0,0,0,.443.443h6.066A10.5,10.5,0,0,0,19.75,34.75a10.505,10.505,0,0,0,8.491-4.491h6.066a.443.443,0,0,0,.443-.443V5.193A.443.443,0,0,0,34.307,4.75ZM5.636,5.636H33.864V8.328H5.636ZM19.75,33.864a9.49,9.49,0,0,1-7.893-4.287l-.009-.014c-.113-.168-.223-.338-.329-.514a9.442,9.442,0,0,1,16.461,0c-.105.177-.216.348-.329.516l0,.007A9.5,9.5,0,0,1,19.75,33.864Zm9.063-4.491c.021-.036.044-.07.065-.106a.443.443,0,0,0,0-.435,10.585,10.585,0,0,0-9.128-5.483,10.579,10.579,0,0,0-9.127,5.483.443.443,0,0,0,0,.435c.021.036.044.07.064.106H5.636V9.214H33.864V29.373Z" transform="translate(0)"/><path class="b" d="M80.7,10.547a.767.767,0,1,0,.767.767A.767.767,0,0,0,80.7,10.547Z" transform="translate(-56.152 -4.327)"/><path class="b" d="M92.534,10.547a.767.767,0,1,0,.767.767.767.767,0,0,0-.767-.767Z" transform="translate(-64.989 -4.327)"/><path class="b" d="M104.367,10.547a.767.767,0,1,0,.767.767.767.767,0,0,0-.767-.767Z" transform="translate(-73.833 -4.327)"/><path class="b" d="M46.934,33.828H30.812a.443.443,0,0,0-.442.444v3.043a.443.443,0,0,0,.442.444H46.934a.443.443,0,0,0,.442-.444V34.272A.443.443,0,0,0,46.934,33.828Zm-.442,3.043H31.255V34.716H46.492Z" transform="translate(-19.123 -21.723)"/><path class="b" d="M55.206,89a2.954,2.954,0,0,0-1.362.33,2.988,2.988,0,0,0,1.369,5.645,2.955,2.955,0,0,0,1.362-.331A2.988,2.988,0,0,0,55.206,89Zm.964,4.855a2.1,2.1,0,1,1,.907-2.827,2.1,2.1,0,0,1-.907,2.827Z" transform="translate(-35.459 -62.95)"/><path class="b" d="M62.694,57.313a.444.444,0,0,0-.444.444v2.5a.444.444,0,1,0,.888,0v-2.5a.444.444,0,0,0-.444-.444Z" transform="translate(-42.944 -39.266)"/><path class="b" d="M76.608,60.83a.444.444,0,0,0-.583.228l-1,2.3a.443.443,0,0,0,.229.583.439.439,0,0,0,.177.037.444.444,0,0,0,.407-.266l1-2.3A.443.443,0,0,0,76.608,60.83Z" transform="translate(-52.457 -41.866)"/><path class="b" d="M87.6,70.768l-1.836,1.7a.444.444,0,0,0,.6.65l1.836-1.7a.444.444,0,1,0-.6-.651Z" transform="translate(-60.408 -49.227)"/><path class="b" d="M46.419,61.059a.444.444,0,1,0-.813.355l1,2.3a.444.444,0,0,0,.406.266.439.439,0,0,0,.178-.037.443.443,0,0,0,.229-.583Z" transform="translate(-30.486 -41.865)"/><path class="b" d="M32.415,70.77a.444.444,0,1,0-.6.651l1.836,1.7a.444.444,0,0,0,.6-.651Z" transform="translate(-20.106 -49.229)"/></g></g></svg>